<?xml version="1.0" encoding="UTF-8" standalone="no"?>
<svg width="800" height="600" xmlns="http://www.w3.org/2000/svg">
  <rect width="800" height="600" fill="#a8d5ba"/>
  <circle cx="600" cy="100" r="50" fill="#f9e076"/>
  <rect x="0" y="400" width="800" height="200" fill="#7fba89"/>
  <path d="M 100,400 L 200,300 L 300,400 L 400,300 L 500,400 L 600,300 L 700,400 Z" fill="#7fba89"/>
  <ellipse cx="250" cy="450" rx="30" ry="20" fill="#5a8c6b"/>
  <ellipse cx="550" cy="450" rx="30" ry="20" fill="#5a8c6b"/>
  <!-- Dog silhouette -->
  <path d="M 400,380 C 410,360 430,350 450,360 C 470,350 490,360 500,380 L 510,400 L 520,410 L 520,430 L 510,440 L 500,450 L 480,460 L 470,460 L 450,460 L 430,460 L 410,450 L 400,440 L 390,430 L 390,410 L 400,400 Z" fill="#8b5a2b"/>
  <circle cx="430" cy="380" r="5" fill="#000"/>
  <circle cx="470" cy="380" r="5" fill="#000"/>
  <ellipse cx="450" cy="390" rx="10" ry="5" fill="#000"/>
  <path d="M 420,360 L 410,340 L 420,320" stroke="#8b5a2b" stroke-width="5" fill="none"/>
  <path d="M 480,360 L 490,340 L 480,320" stroke="#8b5a2b" stroke-width="5" fill="none"/>
</svg>
